<?xml version="1.0" encoding="UTF-8" standalone="no"?>
<!-- Created with Inkscape (http://www.inkscape.org/) -->

<svg
   version="1.1"
   id="svg1"
   width="256.95999"
   height="63.040001"
   viewBox="0 0 256.95999 63.040001"
   xmlns="http://www.w3.org/2000/svg"
   xmlns:svg="http://www.w3.org/2000/svg">
  <defs
     id="defs1" />
  <g
     id="g1">
    <path
       style="fill:#edff00;fill-opacity:1"
       d="M 66.598457,62.683003 C 58.941462,61.794701 53.266343,58.716832 51.189941,54.32628 L 50.31596,52.478248 49.491628,54.163122 C 44.147828,65.085456 13.810907,65.991585 3.3287485,55.541954 1.5678396,53.786509 0.0791489,51.654185 0.39439589,51.338938 0.52614646,51.207188 12.244294,49.278412 12.88836,49.282465 c 0.215402,0.0014 0.709967,0.560029 1.099034,1.241495 1.933328,3.386304 8.945329,5.403438 15.743603,4.528944 5.160096,-0.663767 8.029002,-2.722874 8.029002,-5.762674 v -1.354229 l -1.04,-1.036864 C 34.843703,45.028499 32.56939,44.433175 21.390743,42.886554 10.241218,41.343962 4.7607049,38.871221 2.5514643,34.386499 L 1.7699315,32.8 1.7665015,29.76 1.7630715,26.72 2.606716,25.119348 c 3.1700732,-6.014602 12.395993,-9.254585 24.753279,-8.692922 11.200928,0.509104 17.980611,3.423338 21.566702,9.270406 0.94144,1.535003 1.316135,1.322999 -4.6378,2.624088 -2.798896,0.611631 -5.393383,1.183482 -5.765527,1.270779 C 37.994762,29.7157 37.657591,29.451163 36.982029,28.382395 35.001085,25.248456 31.342858,23.8328 25.279999,23.853961 l -4,0.01396 -2.387299,0.735691 c -1.772244,0.54615 -2.699735,1.048126 -3.6,1.948392 l -1.2127,1.2127 v 1.434493 c 0,3.566523 2.81381,4.782588 15.369014,6.642137 12.796698,1.895317 17.661273,4.221823 20.110834,9.618104 l 0.882908,1.945009 0.614435,-1.382224 c 2.685323,-6.040864 8.722771,-8.584822 23.022807,-9.700963 13.367346,-1.043343 17.122196,-2.262709 17.118803,-5.559232 -0.0041,-4.005463 -4.83396,-6.259887 -13.438804,-6.272835 -6.774065,-0.01019 -10.35198,1.082596 -12.757109,3.896356 l -1.254013,1.46707 -4.914438,-0.875551 c -2.702941,-0.481552 -5.238871,-0.950111 -5.635399,-1.041241 l -0.720959,-0.165692 0.837337,-1.538463 c 3.281706,-6.029576 10.696532,-9.109839 22.859127,-9.496124 14.9266,-0.474071 23.71246,3.060199 26.411377,10.62445 l 0.57088,1.6 0.21052,12.320001 0.21053,12.32 1.49107,4.118365 c 0.82009,2.2651 1.49108,4.1731 1.49108,4.24 0,0.0669 -3.29345,0.121635 -7.318777,0.121635 h -7.318774 l -0.212388,-1.68 c -0.116813,-0.924 -0.295756,-2.149948 -0.397651,-2.724328 l -0.185263,-1.044328 -1.217081,1.099559 c -4.280043,3.866762 -14.306838,5.99676 -23.311609,4.952099 z m 13.56154,-8.140041 c 7.19704,-1.915554 11.018357,-5.80588 11.032972,-11.232218 l 0.007,-2.609256 -1.68,0.639206 c -2.337424,0.889342 -5.296447,1.407789 -11.44,2.004391 -9.599087,0.93217 -12.13841,1.711232 -13.80208,4.234466 -3.393726,5.147156 6.465266,9.469777 15.88208,6.963411 z M 216.67845,62.683003 C 206.54958,61.507934 200.3205,56.70873 200.3205,50.080001 v -2.24 l 0.92307,-1.92 c 2.9507,-6.137526 8.53409,-8.476174 22.91642,-9.598739 13.36735,-1.043343 17.1222,-2.262709 17.11881,-5.559232 -0.004,-4.005463 -4.83396,-6.259887 -13.43881,-6.272835 -6.77406,-0.01019 -10.35198,1.082596 -12.75711,3.896356 l -1.25401,1.46707 -4.91444,-0.875551 c -2.70294,-0.481552 -5.23887,-0.950111 -5.6354,-1.041241 l -0.72096,-0.165692 0.83734,-1.538463 c 3.28171,-6.029576 10.69653,-9.109839 22.85913,-9.496124 14.9266,-0.474071 23.71246,3.060199 26.41137,10.62445 l 0.57088,1.6 0.21053,12.320001 0.21053,12.32 1.49107,4.118365 c 0.82009,2.2651 1.49107,4.1731 1.49107,4.24 0,0.0669 -3.29345,0.121635 -7.31877,0.121635 h -7.31878 l -0.21238,-1.68 c -0.11682,-0.924 -0.29576,-2.149948 -0.39765,-2.724328 l -0.18527,-1.044328 -1.21708,1.099559 c -4.28004,3.866762 -14.30684,5.99676 -23.31161,4.952099 z m 13.56154,-8.140041 c 7.19704,-1.915554 11.01836,-5.80588 11.03297,-11.232218 l 0.007,-2.609256 -1.68,0.639206 c -2.33742,0.889342 -5.29644,1.407789 -11.44,2.004391 -9.59908,0.93217 -12.13841,1.711232 -13.80208,4.234466 -3.39372,5.147156 6.46527,9.469777 15.88208,6.963411 z M 108.48,39.520001 V 16.96 h 6.4 6.4 v 3.07211 3.07211 l 1.70483,-1.558123 c 5.4634,-4.993236 16.88932,-6.772669 24.29517,-3.783642 l 0.56,0.226018 V 8.9942365 0 h 6.42721 6.42722 l -0.23415,16.8 c -0.13757,9.871239 -0.1158,16.795569 0.0528,16.789257 0.15781,-0.0059 5.59885,-3.749909 12.0912,-8.32 L 184.40855,16.96 l 4.51572,0.0421 c 2.48365,0.02315 6.15835,0.131155 8.166,0.24 l 3.65028,0.197901 -14.13028,9.887103 c -7.77165,5.437906 -14.13028,9.995451 -14.13028,10.127878 0,0.132427 6.93959,5.691231 15.42131,12.352898 l 15.42132,12.112122 -8.37986,0.08531 -8.37985,0.08531 -12.72146,-10.180831 c -6.9968,-5.599457 -12.92237,-10.303269 -13.16793,-10.452916 l -0.44647,-0.272085 0.23478,10.447606 0.23478,10.447606 h -6.42602 -6.42603 l -0.0823,-21.141523 -0.0823,-21.141523 -2.5505,3.061523 c -1.40278,1.683837 -2.55478,3.059964 -2.56,3.058059 -8.1628,-2.976091 -17.17327,-0.08152 -20.20977,6.492304 L 121.44,34.4 l -0.0958,13.840001 -0.0958,13.84 H 114.86424 108.48 Z"
       id="path1" />
  </g>
</svg>
